<svg width="12" height="11" viewBox="0 0 12 11" fill="none" xmlns="http://www.w3.org/2000/svg">
<path d="M1.49531 2.58301H10.8286M2.07864 0.833008H10.2453M3.18462 10.1663H9.13935C9.73616 10.1663 10.0345 10.1663 10.2712 10.0546C10.4796 9.95611 10.6541 9.79808 10.7729 9.60051C10.9077 9.37616 10.9374 9.07924 10.9967 8.48541L11.2581 5.87231C11.3114 5.33891 11.338 5.07221 11.2505 4.86606C11.1737 4.68499 11.038 4.53513 10.8655 4.44057C10.6691 4.33301 10.401 4.33301 9.86502 4.33301H2.45896C1.92291 4.33301 1.65489 4.33301 1.45847 4.44057C1.28594 4.53513 1.15029 4.68499 1.07341 4.86606C0.985901 5.07221 1.01257 5.33891 1.06591 5.87231L1.32722 8.48541C1.3866 9.07924 1.4163 9.37616 1.55108 9.60051C1.66978 9.79808 1.84437 9.95611 2.05279 10.0546C2.28942 10.1663 2.58782 10.1663 3.18462 10.1663ZM7.91196 7.24967C7.91196 7.89402 7.12848 8.41634 6.16196 8.41634C5.19549 8.41634 4.41198 7.89402 4.41198 7.24967C4.41198 6.60532 5.19549 6.08301 6.16196 6.08301C7.12848 6.08301 7.91196 6.60532 7.91196 7.24967Z" stroke="#B3B3B3" stroke-linecap="round" stroke-linejoin="round"/>
<path d="M1.49531 2.58301H10.8286M2.07864 0.833008H10.2453M3.18462 10.1663H9.13935C9.73616 10.1663 10.0345 10.1663 10.2712 10.0546C10.4796 9.95611 10.6541 9.79808 10.7729 9.60051C10.9077 9.37616 10.9374 9.07924 10.9967 8.48541L11.2581 5.87231C11.3114 5.33891 11.338 5.07221 11.2505 4.86606C11.1737 4.68499 11.038 4.53513 10.8655 4.44057C10.6691 4.33301 10.401 4.33301 9.86502 4.33301H2.45896C1.92291 4.33301 1.65489 4.33301 1.45847 4.44057C1.28594 4.53513 1.15029 4.68499 1.07341 4.86606C0.985901 5.07221 1.01257 5.33891 1.06591 5.87231L1.32722 8.48541C1.3866 9.07924 1.4163 9.37616 1.55108 9.60051C1.66978 9.79808 1.84437 9.95611 2.05279 10.0546C2.28942 10.1663 2.58782 10.1663 3.18462 10.1663ZM7.91196 7.24967C7.91196 7.89402 7.12848 8.41634 6.16196 8.41634C5.19549 8.41634 4.41198 7.89402 4.41198 7.24967C4.41198 6.60532 5.19549 6.08301 6.16196 6.08301C7.12848 6.08301 7.91196 6.60532 7.91196 7.24967Z" stroke="black" stroke-opacity="0.2" stroke-linecap="round" stroke-linejoin="round"/>
</svg>
