<svg width="32" height="32" viewBox="0 0 32 32" fill="none" xmlns="http://www.w3.org/2000/svg">
<path d="M25.1429 0H6.85714C3.07657 0 0 3.07581 0 6.85714V25.1429C0 28.9242 3.07657 32 6.85714 32H25.1429C28.9234 32 32 28.9242 32 25.1429V6.85714C32 3.07581 28.9234 0 25.1429 0ZM23.619 17.5238V20.5714V20.5874H23.6175C23.6084 22.6804 21.904 24.381 19.8095 24.381H19.4286C18.6766 24.381 17.9558 24.061 17.4507 23.5032C16.9463 22.9463 16.7002 22.1943 16.7749 21.4423C16.9105 20.099 18.1234 19.0476 19.5375 19.0476H20.5714C21.4118 19.0476 22.0952 18.3642 22.0952 17.5238V10.061L12.9524 11.7752V19.8095V22.8571C12.9524 24.9577 11.2434 26.6667 9.14286 26.6667H8.7619C8.0099 26.6667 7.28914 26.3467 6.784 25.789C6.27962 25.232 6.03352 24.48 6.10819 23.728C6.24381 22.3848 7.45676 21.3333 8.87086 21.3333H9.90476C10.7451 21.3333 11.4286 20.6499 11.4286 19.8095V8.6499C11.4286 7.91619 11.952 7.2861 12.6728 7.152L22.2659 5.35391C22.6004 5.29067 22.9448 5.37905 23.2061 5.59695C23.469 5.81486 23.619 6.13562 23.619 6.47619V17.5238Z" fill="white"/>
</svg>
