<svg width="11" height="13" viewBox="0 0 11 13" fill="none" xmlns="http://www.w3.org/2000/svg">
<path d="M9.82845 6.5V7.08333C9.82845 9.66067 7.73913 11.75 5.16178 11.75C2.58445 11.75 0.495117 9.66067 0.495117 7.08333V6.5M5.16178 9.41667C3.87312 9.41667 2.82845 8.37197 2.82845 7.08333V3.58333C2.82845 2.29467 3.87312 1.25 5.16178 1.25C6.45043 1.25 7.49512 2.29467 7.49512 3.58333V7.08333C7.49512 8.37197 6.45043 9.41667 5.16178 9.41667Z" stroke="#B3B3B3" stroke-linecap="round" stroke-linejoin="round"/>
<path d="M9.82845 6.5V7.08333C9.82845 9.66067 7.73913 11.75 5.16178 11.75C2.58445 11.75 0.495117 9.66067 0.495117 7.08333V6.5M5.16178 9.41667C3.87312 9.41667 2.82845 8.37197 2.82845 7.08333V3.58333C2.82845 2.29467 3.87312 1.25 5.16178 1.25C6.45043 1.25 7.49512 2.29467 7.49512 3.58333V7.08333C7.49512 8.37197 6.45043 9.41667 5.16178 9.41667Z" stroke="black" stroke-opacity="0.2" stroke-linecap="round" stroke-linejoin="round"/>
</svg>
