<svg width="21" height="21" viewBox="0 0 21 21" fill="none" xmlns="http://www.w3.org/2000/svg">
<path d="M18.5225 0.5H2.52246C1.42246 0.5 0.532461 1.4 0.532461 2.5L0.522461 20.5L4.52246 16.5H18.5225C19.6225 16.5 20.5225 15.6 20.5225 14.5V2.5C20.5225 1.4 19.6225 0.5 18.5225 0.5ZM5.52246 7.5H15.5225C16.0725 7.5 16.5225 7.95 16.5225 8.5C16.5225 9.05 16.0725 9.5 15.5225 9.5H5.52246C4.97246 9.5 4.52246 9.05 4.52246 8.5C4.52246 7.95 4.97246 7.5 5.52246 7.5ZM11.5225 12.5H5.52246C4.97246 12.5 4.52246 12.05 4.52246 11.5C4.52246 10.95 4.97246 10.5 5.52246 10.5H11.5225C12.0725 10.5 12.5225 10.95 12.5225 11.5C12.5225 12.05 12.0725 12.5 11.5225 12.5ZM15.5225 6.5H5.52246C4.97246 6.5 4.52246 6.05 4.52246 5.5C4.52246 4.95 4.97246 4.5 5.52246 4.5H15.5225C16.0725 4.5 16.5225 4.95 16.5225 5.5C16.5225 6.05 16.0725 6.5 15.5225 6.5Z" fill="#B3B3B3"/>
<path d="M18.5225 0.5H2.52246C1.42246 0.5 0.532461 1.4 0.532461 2.5L0.522461 20.5L4.52246 16.5H18.5225C19.6225 16.5 20.5225 15.6 20.5225 14.5V2.5C20.5225 1.4 19.6225 0.5 18.5225 0.5ZM5.52246 7.5H15.5225C16.0725 7.5 16.5225 7.95 16.5225 8.5C16.5225 9.05 16.0725 9.5 15.5225 9.5H5.52246C4.97246 9.5 4.52246 9.05 4.52246 8.5C4.52246 7.95 4.97246 7.5 5.52246 7.5ZM11.5225 12.5H5.52246C4.97246 12.5 4.52246 12.05 4.52246 11.5C4.52246 10.95 4.97246 10.5 5.52246 10.5H11.5225C12.0725 10.5 12.5225 10.95 12.5225 11.5C12.5225 12.05 12.0725 12.5 11.5225 12.5ZM15.5225 6.5H5.52246C4.97246 6.5 4.52246 6.05 4.52246 5.5C4.52246 4.95 4.97246 4.5 5.52246 4.5H15.5225C16.0725 4.5 16.5225 4.95 16.5225 5.5C16.5225 6.05 16.0725 6.5 15.5225 6.5Z" fill="black" fill-opacity="0.2"/>
</svg>
