<svg width="8" height="15" viewBox="0 0 8 15" fill="none" xmlns="http://www.w3.org/2000/svg">
<path d="M7.70711 2.20711C8.09763 1.81658 8.09763 1.18342 7.70711 0.792893C7.31658 0.402369 6.68342 0.402369 6.29289 0.792893L0.292893 6.79289C-0.0976317 7.18342 -0.0976318 7.81658 0.292893 8.20711L6.29289 14.2071C6.68342 14.5976 7.31658 14.5976 7.70711 14.2071C8.09763 13.8166 8.09763 13.1834 7.70711 12.7929L2.41421 7.5L7.70711 2.20711Z" fill="#B3B3B3"/>
<path d="M7.70711 2.20711C8.09763 1.81658 8.09763 1.18342 7.70711 0.792893C7.31658 0.402369 6.68342 0.402369 6.29289 0.792893L0.292893 6.79289C-0.0976317 7.18342 -0.0976318 7.81658 0.292893 8.20711L6.29289 14.2071C6.68342 14.5976 7.31658 14.5976 7.70711 14.2071C8.09763 13.8166 8.09763 13.1834 7.70711 12.7929L2.41421 7.5L7.70711 2.20711Z" fill="black" fill-opacity="0.2"/>
</svg>
