<svg width="8" height="15" viewBox="0 0 8 15" fill="none" xmlns="http://www.w3.org/2000/svg">
<path d="M0.292893 12.7929C-0.0976312 13.1834 -0.0976311 13.8166 0.292893 14.2071C0.683417 14.5976 1.31658 14.5976 1.70711 14.2071L7.70711 8.20711C8.09763 7.81658 8.09763 7.18342 7.70711 6.79289L1.70711 0.792892C1.31658 0.402368 0.683417 0.402369 0.292893 0.792892C-0.0976317 1.18342 -0.0976317 1.81658 0.292893 2.20711L5.58579 7.5L0.292893 12.7929Z" fill="#B3B3B3"/>
<path d="M0.292893 12.7929C-0.0976312 13.1834 -0.0976311 13.8166 0.292893 14.2071C0.683417 14.5976 1.31658 14.5976 1.70711 14.2071L7.70711 8.20711C8.09763 7.81658 8.09763 7.18342 7.70711 6.79289L1.70711 0.792892C1.31658 0.402368 0.683417 0.402369 0.292893 0.792892C-0.0976317 1.18342 -0.0976317 1.81658 0.292893 2.20711L5.58579 7.5L0.292893 12.7929Z" fill="black" fill-opacity="0.2"/>
</svg>
