<svg width="19" height="21" viewBox="0 0 19 21" fill="none" xmlns="http://www.w3.org/2000/svg">
<path d="M15.5225 14.58C14.7625 14.58 14.0825 14.88 13.5625 15.35L6.43246 11.2C6.48246 10.97 6.52246 10.74 6.52246 10.5C6.52246 10.26 6.48246 10.03 6.43246 9.8L13.4825 5.69C14.0225 6.19 14.7325 6.5 15.5225 6.5C17.1825 6.5 18.5225 5.16 18.5225 3.5C18.5225 1.84 17.1825 0.5 15.5225 0.5C13.8625 0.5 12.5225 1.84 12.5225 3.5C12.5225 3.74 12.5625 3.97 12.6125 4.2L5.56246 8.31C5.02246 7.81 4.31246 7.5 3.52246 7.5C1.86246 7.5 0.522461 8.84 0.522461 10.5C0.522461 12.16 1.86246 13.5 3.52246 13.5C4.31246 13.5 5.02246 13.19 5.56246 12.69L12.6825 16.85C12.6325 17.06 12.6025 17.28 12.6025 17.5C12.6025 19.11 13.9125 20.42 15.5225 20.42C17.1325 20.42 18.4425 19.11 18.4425 17.5C18.4425 15.89 17.1325 14.58 15.5225 14.58Z" fill="#B3B3B3"/>
<path d="M15.5225 14.58C14.7625 14.58 14.0825 14.88 13.5625 15.35L6.43246 11.2C6.48246 10.97 6.52246 10.74 6.52246 10.5C6.52246 10.26 6.48246 10.03 6.43246 9.8L13.4825 5.69C14.0225 6.19 14.7325 6.5 15.5225 6.5C17.1825 6.5 18.5225 5.16 18.5225 3.5C18.5225 1.84 17.1825 0.5 15.5225 0.5C13.8625 0.5 12.5225 1.84 12.5225 3.5C12.5225 3.74 12.5625 3.97 12.6125 4.2L5.56246 8.31C5.02246 7.81 4.31246 7.5 3.52246 7.5C1.86246 7.5 0.522461 8.84 0.522461 10.5C0.522461 12.16 1.86246 13.5 3.52246 13.5C4.31246 13.5 5.02246 13.19 5.56246 12.69L12.6825 16.85C12.6325 17.06 12.6025 17.28 12.6025 17.5C12.6025 19.11 13.9125 20.42 15.5225 20.42C17.1325 20.42 18.4425 19.11 18.4425 17.5C18.4425 15.89 17.1325 14.58 15.5225 14.58Z" fill="black" fill-opacity="0.2"/>
</svg>
