<svg width="12" height="16" viewBox="0 0 12 16" fill="none" xmlns="http://www.w3.org/2000/svg">
<path d="M6.53711 5.66708V12.8746M6.53711 5.66708V3.18199C6.53711 3.02649 6.53711 2.94873 6.56313 2.88257C6.58608 2.82415 6.62336 2.77243 6.67151 2.73216C6.72611 2.68655 6.79983 2.66196 6.94736 2.61278L10.2474 1.51279C10.514 1.42391 10.6473 1.37947 10.7535 1.40611C10.8463 1.42944 10.9268 1.48742 10.9783 1.56817C11.0371 1.66042 11.0371 1.80094 11.0371 2.08199V4.56709C11.0371 4.72259 11.0371 4.80034 11.0111 4.86651C10.9881 4.92493 10.9509 4.97665 10.9027 5.01692C10.8481 5.06253 10.7744 5.08711 10.6269 5.13629L7.32686 6.23629C7.06023 6.32517 6.92688 6.36961 6.82076 6.34297C6.72791 6.31964 6.64743 6.26166 6.59591 6.18091C6.53711 6.08866 6.53711 5.94814 6.53711 5.66708ZM6.53711 12.8746C6.53711 13.9101 5.36186 14.7496 3.91211 14.7496C2.46236 14.7496 1.28711 13.9101 1.28711 12.8746C1.28711 11.839 2.46236 10.9996 3.91211 10.9996C5.36186 10.9996 6.53711 11.839 6.53711 12.8746Z" stroke="#D9D9D9" stroke-linecap="round" stroke-linejoin="round"/>
</svg>
