<svg width="32" height="32" viewBox="0 0 32 32" fill="none" xmlns="http://www.w3.org/2000/svg">
<path d="M16 0C7.17771 0 0 7.17771 0 16C0 24.8223 7.17771 32 16 32C24.8223 32 32 24.823 32 16C32 7.17702 24.8223 0 16 0ZM22.7723 23.1916C22.5713 23.4934 22.2403 23.6561 21.9031 23.6561C21.7042 23.6561 21.5032 23.5998 21.3252 23.4809C19.6055 22.3342 16.6891 21.5693 14.2553 21.57C11.6726 21.5714 9.73671 22.2056 9.71724 22.2118C9.17206 22.3968 8.58029 22.0992 8.3981 21.5526C8.21592 21.006 8.51145 20.415 9.05802 20.2335C9.14981 20.2029 11.3382 19.4859 14.2553 19.4845C16.6891 19.4832 20.0742 20.1396 22.483 21.7452C22.9628 22.0651 23.0922 22.7125 22.7723 23.1916ZM24.8529 18.922C24.6269 19.285 24.2368 19.4845 23.8383 19.4845C23.6228 19.4845 23.4044 19.4268 23.2083 19.3037C20.0902 17.3609 16.8859 16.9499 14.1253 16.9742C11.0086 17.002 8.51632 17.5966 8.4739 17.6091C7.84319 17.7885 7.1798 17.42 6.9997 16.7865C6.81959 16.1516 7.18884 15.4917 7.82303 15.3123C8.01565 15.2573 10.503 14.6454 13.9083 14.6169C17.0132 14.5912 20.8823 15.0411 24.4718 17.2774C25.0302 17.6251 25.202 18.3622 24.8529 18.922ZM26.9286 13.9292C26.6692 14.37 26.2047 14.6155 25.7277 14.6155C25.4885 14.6155 25.2465 14.5536 25.0246 14.4243C21.3906 12.2908 16.9721 11.8381 13.9055 11.834C13.8909 11.834 13.8763 11.834 13.8617 11.834C10.1532 11.834 7.29732 12.4862 7.26881 12.4932C6.51919 12.665 5.77305 12.2018 5.5992 11.4536C5.42536 10.7061 5.88917 9.95923 6.63671 9.78469C6.76535 9.75479 9.81668 9.05246 13.8617 9.05246C13.8777 9.05246 13.8937 9.05246 13.9097 9.05246C17.3205 9.05732 22.2619 9.57608 26.4335 12.0252C27.0955 12.4146 27.3173 13.2672 26.9286 13.9292Z" fill="white"/>
</svg>
