<svg width="19" height="18" viewBox="0 0 19 18" fill="none" xmlns="http://www.w3.org/2000/svg">
<path d="M8.17736 1.35526C8.72758 0.240387 10.3173 0.240386 10.8676 1.35525L12.1355 3.9243C12.4996 4.66215 13.2035 5.17358 14.0178 5.2919L16.8529 5.70387C18.0832 5.88264 18.5745 7.3946 17.6842 8.2624L15.6327 10.2621C15.0435 10.8365 14.7746 11.664 14.9137 12.475L15.398 15.2986C15.6082 16.524 14.3221 17.4584 13.2216 16.8799L10.6858 15.5467C9.9575 15.1638 9.08742 15.1638 8.35911 15.5467L5.82331 16.8799C4.72287 17.4584 3.43672 16.524 3.64689 15.2986L4.13118 12.475C4.27028 11.664 4.00141 10.8365 3.41219 10.2621L1.36069 8.26241C0.470413 7.3946 0.961678 5.88264 2.19201 5.70387L5.02711 5.2919C5.84139 5.17358 6.5453 4.66216 6.90946 3.9243L8.17736 1.35526Z" stroke="#5BE7A1"/>
</svg>
