<svg width="23" height="21" viewBox="0 0 23 21" fill="none" xmlns="http://www.w3.org/2000/svg">
<path d="M14.5225 0.5H5.52246C4.69246 0.5 3.98246 1 3.68246 1.72L0.662461 8.77C0.572461 9 0.522461 9.24 0.522461 9.5V11.5C0.522461 12.6 1.42246 13.5 2.52246 13.5H8.83246L7.88246 18.07L7.85246 18.39C7.85246 18.8 8.02246 19.18 8.29246 19.45L9.35246 20.5L15.9425 13.91C16.3025 13.55 16.5225 13.05 16.5225 12.5V2.5C16.5225 1.4 15.6225 0.5 14.5225 0.5ZM18.5225 0.5V12.5H22.5225V0.5H18.5225Z" fill="#B3B3B3"/>
<path d="M14.5225 0.5H5.52246C4.69246 0.5 3.98246 1 3.68246 1.72L0.662461 8.77C0.572461 9 0.522461 9.24 0.522461 9.5V11.5C0.522461 12.6 1.42246 13.5 2.52246 13.5H8.83246L7.88246 18.07L7.85246 18.39C7.85246 18.8 8.02246 19.18 8.29246 19.45L9.35246 20.5L15.9425 13.91C16.3025 13.55 16.5225 13.05 16.5225 12.5V2.5C16.5225 1.4 15.6225 0.5 14.5225 0.5ZM18.5225 0.5V12.5H22.5225V0.5H18.5225Z" fill="black" fill-opacity="0.2"/>
</svg>
