<svg width="23" height="20" viewBox="0 0 23 20" fill="none" xmlns="http://www.w3.org/2000/svg">
<path d="M12.6425 0.559969L7.10246 6.09997C6.73246 6.46997 6.52246 6.97997 6.52246 7.50997V17.5C6.52246 18.6 7.42246 19.5 8.52246 19.5H17.5225C18.3225 19.5 19.0425 19.02 19.3625 18.29L22.6225 10.68C23.4625 8.69997 22.0125 6.49997 19.8625 6.49997H14.2125L15.1625 1.91997C15.2625 1.41997 15.1125 0.909969 14.7525 0.549969C14.1625 -0.0300311 13.2225 -0.0300311 12.6425 0.559969ZM2.52246 19.5C3.62246 19.5 4.52246 18.6 4.52246 17.5V9.49997C4.52246 8.39997 3.62246 7.49997 2.52246 7.49997C1.42246 7.49997 0.522461 8.39997 0.522461 9.49997V17.5C0.522461 18.6 1.42246 19.5 2.52246 19.5Z" fill="#5BE7A1"/>
</svg>
