<svg width="24" height="25" viewBox="0 0 24 25" fill="none" xmlns="http://www.w3.org/2000/svg">
<path d="M15.7071 7.20711C16.0976 6.81658 16.0976 6.18342 15.7071 5.79289C15.3166 5.40237 14.6834 5.40237 14.2929 5.79289L8.29289 11.7929C7.90237 12.1834 7.90237 12.8166 8.29289 13.2071L14.2929 19.2071C14.6834 19.5976 15.3166 19.5976 15.7071 19.2071C16.0976 18.8166 16.0976 18.1834 15.7071 17.7929L10.4142 12.5L15.7071 7.20711Z" fill="#B3B3B3"/>
<path d="M15.7071 7.20711C16.0976 6.81658 16.0976 6.18342 15.7071 5.79289C15.3166 5.40237 14.6834 5.40237 14.2929 5.79289L8.29289 11.7929C7.90237 12.1834 7.90237 12.8166 8.29289 13.2071L14.2929 19.2071C14.6834 19.5976 15.3166 19.5976 15.7071 19.2071C16.0976 18.8166 16.0976 18.1834 15.7071 17.7929L10.4142 12.5L15.7071 7.20711Z" fill="black" fill-opacity="0.2"/>
</svg>
