<svg width="19" height="21" viewBox="0 0 19 21" fill="none" xmlns="http://www.w3.org/2000/svg">
    <path d="M8.91934 0.894743L8.91935 0.894742C14.2178 0.55095 18.6256 4.74653 18.6256 9.97341V17.342C18.6256 18.8823 17.3829 20.125 15.8426 20.125H14.79C13.8391 20.125 13.0596 19.3455 13.0596 18.3947V14.184C13.0596 13.2332 13.8391 12.4537 14.79 12.4537H16.8953H17.2703V12.0787V9.97341C17.2703 5.61495 13.6856 2.10829 9.29522 2.22994L9.29484 2.22995C5.04056 2.35213 1.78305 6.05393 1.78305 10.2787V12.0787V12.4537H2.15805H4.26337C5.21419 12.4537 5.99369 13.2332 5.99369 14.184V18.3947C5.99369 19.3455 5.21419 20.125 4.26337 20.125H3.21071C1.6704 20.125 0.427734 18.8823 0.427734 17.342V10.2997C0.427734 5.43795 4.10164 1.20719 8.91934 0.894743Z" stroke="#B3B3B3" stroke-width="0.75"/>
    <path d="M8.91934 0.894743L8.91935 0.894742C14.2178 0.55095 18.6256 4.74653 18.6256 9.97341V17.342C18.6256 18.8823 17.3829 20.125 15.8426 20.125H14.79C13.8391 20.125 13.0596 19.3455 13.0596 18.3947V14.184C13.0596 13.2332 13.8391 12.4537 14.79 12.4537H16.8953H17.2703V12.0787V9.97341C17.2703 5.61495 13.6856 2.10829 9.29522 2.22994L9.29484 2.22995C5.04056 2.35213 1.78305 6.05393 1.78305 10.2787V12.0787V12.4537H2.15805H4.26337C5.21419 12.4537 5.99369 13.2332 5.99369 14.184V18.3947C5.99369 19.3455 5.21419 20.125 4.26337 20.125H3.21071C1.6704 20.125 0.427734 18.8823 0.427734 17.342V10.2997C0.427734 5.43795 4.10164 1.20719 8.91934 0.894743Z" stroke="black" stroke-opacity="0.2" stroke-width="0.75"/>
</svg>
