<svg width="24" height="25" viewBox="0 0 24 25" fill="none" xmlns="http://www.w3.org/2000/svg">
<path d="M8.29289 17.7929C7.90237 18.1834 7.90237 18.8166 8.29289 19.2071C8.68342 19.5976 9.31658 19.5976 9.70711 19.2071L15.7071 13.2071C16.0976 12.8166 16.0976 12.1834 15.7071 11.7929L9.70711 5.79289C9.31658 5.40237 8.68342 5.40237 8.29289 5.79289C7.90237 6.18342 7.90237 6.81658 8.29289 7.20711L13.5858 12.5L8.29289 17.7929Z" fill="#B3B3B3"/>
<path d="M8.29289 17.7929C7.90237 18.1834 7.90237 18.8166 8.29289 19.2071C8.68342 19.5976 9.31658 19.5976 9.70711 19.2071L15.7071 13.2071C16.0976 12.8166 16.0976 12.1834 15.7071 11.7929L9.70711 5.79289C9.31658 5.40237 8.68342 5.40237 8.29289 5.79289C7.90237 6.18342 7.90237 6.81658 8.29289 7.20711L13.5858 12.5L8.29289 17.7929Z" fill="black" fill-opacity="0.2"/>
</svg>
