<svg width="12" height="13" viewBox="0 0 12 13" fill="none" xmlns="http://www.w3.org/2000/svg">
    <path d="M6.25 4.94488V9.74988M6.25 4.94488V3.28816C6.25 3.18449 6.25 3.13265 6.26735 3.08854C6.28265 3.04959 6.3075 3.01511 6.3396 2.98827C6.376 2.95786 6.42515 2.94147 6.5235 2.90868L8.7235 2.17535C8.90125 2.1161 8.99015 2.08647 9.0609 2.10424C9.1228 2.11979 9.17645 2.15844 9.2108 2.21227C9.25 2.27377 9.25 2.36746 9.25 2.55482V4.21155C9.25 4.31522 9.25 4.36706 9.23265 4.41117C9.21735 4.45012 9.1925 4.48459 9.1604 4.51144C9.124 4.54185 9.07485 4.55824 8.9765 4.59102L6.7765 5.32436C6.59875 5.38361 6.50985 5.41323 6.4391 5.39547C6.3772 5.37992 6.32355 5.34127 6.2892 5.28744C6.25 5.22594 6.25 5.13225 6.25 4.94488ZM6.25 9.74988C6.25 10.4402 5.4665 10.9999 4.5 10.9999C3.5335 10.9999 2.75 10.4402 2.75 9.74988C2.75 9.05948 3.5335 8.49988 4.5 8.49988C5.4665 8.49988 6.25 9.05948 6.25 9.74988Z" stroke="white" stroke-linecap="round" stroke-linejoin="round"/>
</svg>
