<svg width="24" height="24" viewBox="0 0 24 24" fill="none" xmlns="http://www.w3.org/2000/svg">
<path d="M10.6549 3.85526C11.2051 2.74039 12.7949 2.74039 13.3451 3.85525L14.613 6.4243C14.9772 7.16215 15.6811 7.67358 16.4953 7.7919L19.3305 8.20387C20.5608 8.38264 21.052 9.8946 20.1618 10.7624L18.1103 12.7621C17.5211 13.3365 17.2522 14.164 17.3913 14.975L17.8756 17.7986C18.0857 19.024 16.7996 19.9584 15.6991 19.3799L13.1634 18.0467C12.435 17.6638 11.565 17.6638 10.8366 18.0467L8.30085 19.3799C7.20041 19.9584 5.91426 19.024 6.12443 17.7986L6.60872 14.975C6.74782 14.164 6.47894 13.3365 5.88973 12.7621L3.83823 10.7624C2.94795 9.8946 3.43922 8.38264 4.66955 8.20387L7.50465 7.7919C8.31893 7.67358 9.02284 7.16216 9.387 6.4243L10.6549 3.85526Z" fill="#5BE7A1" stroke="#5BE7A1"/>
</svg>
